<svg width="200" height="29" viewBox="0 0 200 29" fill="none" xmlns="http://www.w3.org/2000/svg">
<g clip-path="url(#clip0_705_5527)">
<path d="M8.02305 27.5606V7.77052H0.153564V0.765533H24.952V7.77052H17.0825V27.5606H8.02305ZM41.0184 28.173C38.8432 28.173 36.8215 27.8285 34.9532 27.1395C33.1106 26.4505 31.5111 25.4807 30.1547 24.2303C28.7985 22.9543 27.7363 21.4614 26.9685 19.7517C26.2265 18.042 25.8553 16.1791 25.8553 14.1631C25.8553 12.1215 26.2265 10.2586 26.9685 8.57437C27.7363 6.8646 28.7985 5.38448 30.1547 4.13405C31.5111 2.85809 33.1106 1.87561 34.9532 1.1866C36.8215 0.497585 38.8432 0.153076 41.0184 0.153076C43.2194 0.153076 45.2411 0.497585 47.0837 1.1866C48.9263 1.87561 50.5259 2.85809 51.8822 4.13405C53.2386 5.38448 54.2879 6.8646 55.03 8.57437C55.7977 10.2586 56.1816 12.1215 56.1816 14.1631C56.1816 16.1791 55.7977 18.042 55.03 19.7517C54.2879 21.4614 53.2386 22.9543 51.8822 24.2303C50.5259 25.4807 48.9263 26.4505 47.0837 27.1395C45.2411 27.8285 43.2194 28.173 41.0184 28.173ZM41.0184 20.8618C41.863 20.8618 42.6436 20.7087 43.3601 20.4025C44.1023 20.0962 44.7421 19.6624 45.2795 19.101C45.8426 18.514 46.2776 17.8123 46.5847 16.9957C46.8918 16.1535 47.0453 15.2093 47.0453 14.1631C47.0453 13.1168 46.8918 12.1853 46.5847 11.3687C46.2776 10.5266 45.8426 9.8248 45.2795 9.26339C44.7421 8.67644 44.1023 8.22987 43.3601 7.92364C42.6436 7.61741 41.863 7.46429 41.0184 7.46429C40.1739 7.46429 39.3806 7.61741 38.6384 7.92364C37.9219 8.22987 37.2822 8.67644 36.719 9.26339C36.1816 9.8248 35.7593 10.5266 35.4522 11.3687C35.1451 12.1853 34.9916 13.1168 34.9916 14.1631C34.9916 15.2093 35.1451 16.1535 35.4522 16.9957C35.7593 17.8123 36.1816 18.514 36.719 19.101C37.2822 19.6624 37.9219 20.0962 38.6384 20.4025C39.3806 20.7087 40.1739 20.8618 41.0184 20.8618ZM72.3298 28.173C68.2094 28.173 64.9977 27.0629 62.6945 24.8428C60.3912 22.6226 59.2396 19.5092 59.2396 15.5028V0.765533H68.2991V15.2349C68.2991 17.2764 68.6701 18.731 69.4123 19.5986C70.1543 20.4407 71.1524 20.8618 72.4065 20.8618C73.686 20.8618 74.6841 20.4407 75.4008 19.5986C76.1428 18.731 76.514 17.2764 76.514 15.2349V0.765533H85.42V15.5028C85.42 19.5092 84.2683 22.6226 81.9651 24.8428C79.6618 27.0629 76.4499 28.173 72.3298 28.173ZM128.195 27.7902C126.148 27.7902 124.331 27.3437 122.744 26.4505C121.157 25.5573 119.903 24.3323 118.982 22.7757C118.061 21.1935 117.6 19.4072 117.6 17.4167C117.6 15.4007 118.061 13.6144 118.982 12.0577C119.903 10.5011 121.157 9.2889 122.744 8.42126C124.331 7.52809 126.148 7.08151 128.195 7.08151C130.217 7.08151 132.021 7.52809 133.608 8.42126C135.22 9.2889 136.474 10.5011 137.37 12.0577C138.291 13.5889 138.752 15.3752 138.752 17.4167C138.752 19.4327 138.291 21.2191 137.37 22.7757C136.474 24.3323 135.22 25.5573 133.608 26.4505C132.021 27.3437 130.217 27.7902 128.195 27.7902ZM128.195 24.5748C129.5 24.5748 130.665 24.2814 131.688 23.6944C132.738 23.1074 133.557 22.2781 134.145 21.2063C134.734 20.1091 135.028 18.8458 135.028 17.4167C135.028 15.9621 134.734 14.7117 134.145 13.6654C133.557 12.5936 132.738 11.7643 131.688 11.1773C130.665 10.5904 129.5 10.2969 128.195 10.2969C126.89 10.2969 125.726 10.5904 124.702 11.1773C123.678 11.7643 122.859 12.5936 122.245 13.6654C121.631 14.7117 121.324 15.9621 121.324 17.4167C121.324 18.8458 121.631 20.1091 122.245 21.2063C122.859 22.2781 123.678 23.1074 124.702 23.6944C125.726 24.2814 126.89 24.5748 128.195 24.5748ZM150.489 27.7902C148.749 27.7902 147.214 27.4712 145.883 26.8333C144.578 26.1954 143.554 25.2256 142.812 23.9241C142.095 22.5972 141.737 20.9384 141.737 18.9479V7.2729H145.422V18.5268C145.422 20.5173 145.896 22.0102 146.843 23.0054C147.815 24.0007 149.171 24.4983 150.912 24.4983C152.191 24.4983 153.305 24.2432 154.251 23.7327C155.198 23.1968 155.928 22.4312 156.44 21.436C156.951 20.4153 157.207 19.1904 157.207 17.7612V7.2729H160.893V27.5606H157.399V22.0867L157.975 23.5413C157.31 24.8939 156.312 25.94 154.981 26.6802C153.65 27.4203 152.153 27.7902 150.489 27.7902ZM173.743 27.7902C171.696 27.7902 170.109 27.2415 168.983 26.1443C167.857 25.047 167.294 23.4776 167.294 21.436V2.83258H170.979V21.2829C170.979 22.3801 171.248 23.2223 171.785 23.8093C172.348 24.3963 173.142 24.6897 174.165 24.6897C175.317 24.6897 176.277 24.3706 177.045 23.7327L178.196 26.3739C177.633 26.8587 176.955 27.2161 176.162 27.4457C175.394 27.6754 174.588 27.7902 173.743 27.7902ZM163.839 10.2969V7.2729H176.814V10.2969H163.839ZM190.559 27.7902C188.384 27.7902 186.465 27.3437 184.801 26.4505C183.163 25.5573 181.884 24.3323 180.962 22.7757C180.067 21.2191 179.619 19.4327 179.619 17.4167C179.619 15.4007 180.054 13.6144 180.924 12.0577C181.82 10.5011 183.035 9.2889 184.571 8.42126C186.132 7.52809 187.885 7.08151 189.83 7.08151C191.801 7.08151 193.541 7.51534 195.05 8.38298C196.56 9.25062 197.737 10.4755 198.582 12.0577C199.453 13.6144 199.887 15.439 199.887 17.5316C199.887 17.6847 199.875 17.8633 199.848 18.0675C199.848 18.2716 199.837 18.463 199.81 18.6417H182.498V16.0004H197.891L196.393 16.9191C196.42 15.6176 196.152 14.4565 195.587 13.4358C195.025 12.415 194.244 11.6239 193.246 11.0625C192.274 10.4755 191.135 10.1821 189.83 10.1821C188.55 10.1821 187.412 10.4755 186.413 11.0625C185.415 11.6239 184.635 12.4277 184.072 13.474C183.509 14.4948 183.227 15.6687 183.227 16.9957V17.6081C183.227 18.9606 183.534 20.1728 184.149 21.2446C184.788 22.2909 185.671 23.1074 186.797 23.6944C187.923 24.2814 189.216 24.5748 190.674 24.5748C191.877 24.5748 192.965 24.3706 193.937 23.9624C194.935 23.5541 195.806 22.9417 196.547 22.125L198.582 24.4983C197.66 25.5701 196.509 26.3868 195.127 26.9481C193.772 27.5095 192.248 27.7902 190.559 27.7902Z" fill="black"/>
<path d="M89.5726 27.5607V0.765625H102.509C105.017 0.765625 107.18 1.17393 108.997 1.99054C110.839 2.80716 112.26 3.98103 113.258 5.51218C114.256 7.01781 114.755 8.80414 114.755 10.8712C114.755 12.9382 114.256 14.7246 113.258 16.2302C112.26 17.7103 110.839 18.8459 108.997 19.637C107.18 20.428 105.017 20.8236 102.509 20.8236H94.6014L98.6321 17.1106V27.5607H89.5726ZM105.657 27.5607L99.0543 17.7996H108.651L115.331 27.5607H105.657ZM98.6321 18.1058L94.6014 14.01H101.933C103.188 14.01 104.109 13.7293 104.697 13.1679C105.312 12.6065 105.619 11.8409 105.619 10.8712C105.619 9.90145 105.312 9.13588 104.697 8.57447C104.109 8.01305 103.188 7.73234 101.933 7.73234H94.6014L98.6321 3.63652V18.1058Z" fill="#3AD0FF"/>
</g>
<defs>
<clipPath id="clip0_705_5527">
<rect width="200" height="28.3262" fill="white"/>
</clipPath>
</defs>
</svg>
