<svg width="148" height="28" viewBox="0 0 148 28" fill="none" xmlns="http://www.w3.org/2000/svg">
<g clip-path="url(#clip0_221_266)" filter="url(#filter0_d_221_266)">
<g filter="url(#filter1_d_221_266)">
<path d="M9.61618 19.3474V5.45489H4.10754V0.537425H21.4665V5.45489H15.9578V19.3474H9.61618ZM32.713 19.7773C31.1903 19.7773 29.7751 19.5355 28.4673 19.0518C27.1774 18.5681 26.0579 17.8873 25.1083 17.0096C24.159 16.1138 23.4155 15.0659 22.878 13.8656C22.3586 12.6654 22.0988 11.3576 22.0988 9.94242C22.0988 8.50927 22.3586 7.20153 22.878 6.01919C23.4155 4.81894 24.159 3.7799 25.1083 2.90211C26.0579 2.00639 27.1774 1.3167 28.4673 0.833011C29.7751 0.349326 31.1903 0.107483 32.713 0.107483C34.2536 0.107483 35.6688 0.349326 36.9586 0.833011C38.2485 1.3167 39.3682 2.00639 40.3176 2.90211C41.2671 3.7799 42.0016 4.81894 42.521 6.01919C43.0584 7.20153 43.3272 8.50927 43.3272 9.94242C43.3272 11.3576 43.0584 12.6654 42.521 13.8656C42.0016 15.0659 41.2671 16.1138 40.3176 17.0096C39.3682 17.8873 38.2485 18.5681 36.9586 19.0518C35.6688 19.5355 34.2536 19.7773 32.713 19.7773ZM32.713 14.6449C33.3041 14.6449 33.8506 14.5374 34.3521 14.3225C34.8717 14.1075 35.3195 13.8029 35.6957 13.4088C36.0899 12.9968 36.3943 12.5042 36.6093 11.9309C36.8243 11.3397 36.9318 10.6769 36.9318 9.94242C36.9318 9.20793 36.8243 8.55407 36.6093 7.9808C36.3943 7.38963 36.0899 6.89699 35.6957 6.50288C35.3195 6.09084 34.8717 5.77735 34.3521 5.56238C33.8506 5.34741 33.3041 5.23992 32.713 5.23992C32.1218 5.23992 31.5665 5.34741 31.0469 5.56238C30.5454 5.77735 30.0976 6.09084 29.7034 6.50288C29.3272 6.89699 29.0316 7.38963 28.8166 7.9808C28.6016 8.55407 28.4941 9.20793 28.4941 9.94242C28.4941 10.6769 28.6016 11.3397 28.8166 11.9309C29.0316 12.5042 29.3272 12.9968 29.7034 13.4088C30.0976 13.8029 30.5454 14.1075 31.0469 14.3225C31.5665 14.5374 32.1218 14.6449 32.713 14.6449ZM54.6309 19.7773C51.7466 19.7773 49.4984 18.9981 47.8862 17.4395C46.2739 15.881 45.4677 13.6954 45.4677 10.8829V0.537425H51.8094V10.6948C51.8094 12.128 52.0691 13.1491 52.5887 13.7582C53.1081 14.3493 53.8067 14.6449 54.6846 14.6449C55.5803 14.6449 56.2789 14.3493 56.7806 13.7582C57.3 13.1491 57.5599 12.128 57.5599 10.6948V0.537425H63.794V10.8829C63.794 13.6954 62.9879 15.881 61.3756 17.4395C59.7633 18.9981 57.515 19.7773 54.6309 19.7773ZM93.7367 19.5086C92.3035 19.5086 91.0317 19.1952 89.921 18.5681C88.8102 17.9411 87.9325 17.0812 87.2876 15.9885C86.6426 14.8778 86.3202 13.6238 86.3202 12.2265C86.3202 10.8113 86.6426 9.55726 87.2876 8.46449C87.9325 7.37172 88.8102 6.52079 89.921 5.91171C91.0317 5.2847 92.3035 4.97121 93.7367 4.97121C95.1519 4.97121 96.4148 5.2847 97.5256 5.91171C98.6542 6.52079 99.5319 7.37172 100.159 8.46449C100.804 9.53935 101.126 10.7933 101.126 12.2265C101.126 13.6417 100.804 14.8958 100.159 15.9885C99.5319 17.0812 98.6542 17.9411 97.5256 18.5681C96.4148 19.1952 95.1519 19.5086 93.7367 19.5086ZM93.7367 17.2514C94.6503 17.2514 95.4655 17.0455 96.182 16.6334C96.9165 16.2213 97.4897 15.6392 97.9018 14.8868C98.3138 14.1165 98.5198 13.2297 98.5198 12.2265C98.5198 11.2054 98.3138 10.3276 97.9018 9.59309C97.4897 8.84069 96.9165 8.25848 96.182 7.84645C95.4655 7.43441 94.6503 7.2284 93.7367 7.2284C92.8231 7.2284 92.0079 7.43441 91.2914 7.84645C90.5749 8.25848 90.0016 8.84069 89.5716 9.59309C89.1417 10.3276 88.9267 11.2054 88.9267 12.2265C88.9267 13.2297 89.1417 14.1165 89.5716 14.8868C90.0016 15.6392 90.5749 16.2213 91.2914 16.6334C92.0079 17.0455 92.8231 17.2514 93.7367 17.2514ZM109.343 19.5086C108.124 19.5086 107.05 19.2847 106.118 18.8368C105.204 18.389 104.488 17.7083 103.968 16.7946C103.467 15.8631 103.216 14.6987 103.216 13.3013V5.10556H105.796V13.0058C105.796 14.4031 106.127 15.4511 106.79 16.1497C107.471 16.8484 108.42 17.1977 109.638 17.1977C110.534 17.1977 111.313 17.0186 111.976 16.6603C112.639 16.2841 113.149 15.7466 113.508 15.048C113.866 14.3315 114.045 13.4716 114.045 12.4683V5.10556H116.625V19.3474H114.18V15.5048L114.583 16.5259C114.117 17.4754 113.418 18.2098 112.487 18.7294C111.555 19.2489 110.507 19.5086 109.343 19.5086ZM125.62 19.5086C124.187 19.5086 123.076 19.1234 122.288 18.3532C121.5 17.5829 121.106 16.4812 121.106 15.048V1.98848H123.686V14.9405C123.686 15.7108 123.874 16.3019 124.25 16.714C124.644 17.1261 125.199 17.3321 125.916 17.3321C126.722 17.3321 127.394 17.1081 127.931 16.6603L128.737 18.5144C128.343 18.8547 127.868 19.1056 127.313 19.2668C126.776 19.428 126.211 19.5086 125.62 19.5086ZM118.687 7.2284V5.10556H127.77V7.2284H118.687ZM137.392 19.5086C135.869 19.5086 134.525 19.1952 133.361 18.5681C132.214 17.9411 131.319 17.0812 130.674 15.9885C130.047 14.8958 129.733 13.6417 129.733 12.2265C129.733 10.8113 130.038 9.55726 130.647 8.46449C131.274 7.37172 132.125 6.52079 133.2 5.91171C134.292 5.2847 135.52 4.97121 136.881 4.97121C138.26 4.97121 139.479 5.27575 140.535 5.88483C141.592 6.49392 142.416 7.3538 143.007 8.46449C143.617 9.55726 143.921 10.8381 143.921 12.3071C143.921 12.4146 143.913 12.54 143.894 12.6833C143.894 12.8266 143.886 12.961 143.867 13.0864H131.749V11.2322H142.523L141.475 11.8772C141.494 10.9635 141.306 10.1484 140.911 9.43186C140.518 8.71529 139.971 8.15994 139.272 7.76583C138.592 7.3538 137.795 7.14779 136.881 7.14779C135.985 7.14779 135.188 7.3538 134.489 7.76583C133.791 8.15994 133.244 8.72424 132.85 9.45873C132.456 10.1753 132.259 10.9994 132.259 11.9309V12.3608C132.259 13.3103 132.474 14.1612 132.904 14.9136C133.352 15.6482 133.97 16.2213 134.758 16.6334C135.546 17.0455 136.451 17.2514 137.472 17.2514C138.314 17.2514 139.076 17.1081 139.756 16.8215C140.454 16.5349 141.064 16.105 141.583 15.5317L143.007 17.1977C142.362 17.9501 141.556 18.5234 140.589 18.9175C139.64 19.3115 138.573 19.5086 137.392 19.5086Z" fill="white"/>
</g>
<path d="M66.7008 19.3474V0.537415H75.7565C77.5121 0.537415 79.0259 0.824042 80.2977 1.3973C81.5876 1.97056 82.5818 2.79461 83.2805 3.86947C83.9791 4.92642 84.3284 6.18041 84.3284 7.63147C84.3284 9.08252 83.9791 10.3365 83.2805 11.3935C82.5818 12.4325 81.5876 13.2297 80.2977 13.785C79.0259 14.3403 77.5121 14.618 75.7565 14.618H70.221L73.0425 12.0115V19.3474H66.7008ZM77.9599 19.3474L73.338 12.4952H80.0559L84.7315 19.3474H77.9599ZM73.0425 12.7102L70.221 9.83492H75.3534C76.2313 9.83492 76.8762 9.63786 77.2881 9.24375C77.7181 8.84964 77.9331 8.31221 77.9331 7.63147C77.9331 6.95072 77.7181 6.41329 77.2881 6.01918C76.8762 5.62507 76.2313 5.42801 75.3534 5.42801H70.221L73.0425 2.55277V12.7102Z" fill="#3AD0FF"/>
</g>
<defs>
<filter id="filter0_d_221_266" x="0" y="0" width="148" height="27.8848" filterUnits="userSpaceOnUse" color-interpolation-filters="sRGB">
<feFlood flood-opacity="0" result="BackgroundImageFix"/>
<feColorMatrix in="SourceAlpha" type="matrix" values="0 0 0 0 0 0 0 0 0 0 0 0 0 0 0 0 0 0 127 0" result="hardAlpha"/>
<feOffset dy="4"/>
<feGaussianBlur stdDeviation="2"/>
<feComposite in2="hardAlpha" operator="out"/>
<feColorMatrix type="matrix" values="0 0 0 0 0 0 0 0 0 0 0 0 0 0 0 0 0 0 0.25 0"/>
<feBlend mode="normal" in2="BackgroundImageFix" result="effect1_dropShadow_221_266"/>
<feBlend mode="normal" in="SourceGraphic" in2="effect1_dropShadow_221_266" result="shape"/>
</filter>
<filter id="filter1_d_221_266" x="0.107544" y="0.107483" width="147.813" height="27.6699" filterUnits="userSpaceOnUse" color-interpolation-filters="sRGB">
<feFlood flood-opacity="0" result="BackgroundImageFix"/>
<feColorMatrix in="SourceAlpha" type="matrix" values="0 0 0 0 0 0 0 0 0 0 0 0 0 0 0 0 0 0 127 0" result="hardAlpha"/>
<feOffset dy="4"/>
<feGaussianBlur stdDeviation="2"/>
<feComposite in2="hardAlpha" operator="out"/>
<feColorMatrix type="matrix" values="0 0 0 0 0 0 0 0 0 0 0 0 0 0 0 0 0 0 0.25 0"/>
<feBlend mode="normal" in2="BackgroundImageFix" result="effect1_dropShadow_221_266"/>
<feBlend mode="normal" in="SourceGraphic" in2="effect1_dropShadow_221_266" result="shape"/>
</filter>
<clipPath id="clip0_221_266">
<rect width="140" height="19.8848" fill="white" transform="translate(4)"/>
</clipPath>
</defs>
</svg>
