<svg width="1080" height="300" viewBox="0 0 1080 300" fill="none" xmlns="http://www.w3.org/2000/svg">
<rect width="1080" height="300" rx="8" fill="white"/>
<rect width="1080" height="300" rx="8" fill="url(#paint0_linear_378_329)"/>
<path d="M385.224 110H393.192V150.992H385.224V141.104H380.568L381.096 133.52H385.224V126.272H381.096L380.568 118.688H385.224V110ZM366.984 110.48C374.568 110.48 379.56 116.528 379.56 130.016C379.56 143.504 374.568 149.552 366.984 149.552C359.4 149.552 354.36 143.504 354.36 130.016C354.36 116.528 359.4 110.48 366.984 110.48ZM366.984 142.112C369.624 142.112 371.592 139.232 371.592 130.016C371.592 120.848 369.624 117.92 366.984 117.92C364.296 117.92 362.328 120.848 362.328 130.016C362.328 139.232 364.296 142.112 366.984 142.112ZM418.148 112.448V118.352H396.164V112.448H403.316V109.376H411.38V112.448H418.148ZM427.172 125.552V133.856H419.828V110.192H427.172V118.352H430.484V110H437.924V135.296H430.484V125.552H427.172ZM417.572 126.992C417.572 131.744 413.108 134.672 407.444 134.672C401.78 134.672 397.316 131.744 397.316 126.992C397.316 122.24 401.78 119.312 407.444 119.312C413.108 119.312 417.572 122.24 417.572 126.992ZM404.372 126.992C404.372 128.288 405.764 129.104 407.444 129.104C409.124 129.104 410.516 128.288 410.516 126.992C410.516 125.648 409.124 124.88 407.444 124.88C405.764 124.88 404.372 125.648 404.372 126.992ZM418.82 135.344C429.716 135.344 438.164 137.408 438.164 143.408C438.164 149.408 429.716 151.472 418.82 151.472C407.924 151.472 399.476 149.408 399.476 143.408C399.476 137.408 407.924 135.344 418.82 135.344ZM418.82 145.424C424.724 145.424 429.62 144.8 429.62 143.408C429.62 142.016 424.724 141.392 418.82 141.392C412.916 141.392 408.02 142.016 408.02 143.408C408.02 144.8 412.916 145.424 418.82 145.424ZM461.632 109.328C472.384 109.328 480.256 111.344 480.256 117.056C480.256 122.768 472.384 124.784 461.632 124.784C450.88 124.784 443.008 122.768 443.008 117.056C443.008 111.344 450.88 109.328 461.632 109.328ZM461.632 115.136C455.536 115.136 451.6 115.712 451.6 117.056C451.6 118.448 455.536 118.976 461.632 118.976C467.728 118.976 471.664 118.448 471.664 117.056C471.664 115.712 467.728 115.136 461.632 115.136ZM482.368 126.128V132.032H440.896V126.128H482.368ZM479.968 133.616V144.32H451.264V145.712H480.4V150.992H443.344V140.096H472.048V138.704H443.248V133.616H479.968ZM527.449 110H535.561V150.992H527.449V132.656H514.777V125.072H527.449V110ZM505.609 141.776H513.241C517.129 141.776 521.353 141.104 523.849 140V147.2C521.353 148.4 516.601 149.072 512.665 149.072H497.353V110.96H521.353V118.256H505.609V141.776ZM589.042 118.16H593.842V126.032H589.042V140.336H580.93V110H589.042V118.16ZM575.698 117.056C575.698 128.96 565.33 134.624 551.266 134.624V127.472C560.818 127.376 567.442 123.92 567.442 118.4V117.488H551.266V110.48H575.698V117.056ZM561.106 136.784V143.696H589.618V150.992H552.85V136.784H561.106ZM626.19 140.432V130.592H622.494V123.872H626.19V120.8H622.494V114.08H626.19V110H634.158V140.432H626.19ZM621.342 133.952C619.23 134.624 615.294 135.008 611.406 135.008H594.606V128.384H597.966V117.152H594.894V110.48H620.718V117.152H617.55V128.144C619.038 128 620.334 127.76 621.342 127.472V133.952ZM605.646 117.152V128.384H609.87V117.152H605.646ZM605.742 143.792H634.734V150.992H597.486V137.456H605.742V143.792ZM656.425 109.856V114.944H665.545V122.336H638.953V114.944H648.121V109.856H656.425ZM681.385 124.976V132.848H676.585V150.992H668.473V110H676.585V124.976H681.385ZM652.249 124.016C659.641 124.016 664.153 129.536 664.153 136.784C664.153 144.08 659.641 149.552 652.249 149.552C644.857 149.552 640.345 144.08 640.345 136.784C640.345 129.536 644.857 124.016 652.249 124.016ZM652.249 142.592C654.889 142.592 656.425 140.288 656.425 136.784C656.425 133.28 654.889 130.976 652.249 130.976C649.609 130.976 648.073 133.28 648.073 136.784C648.073 140.288 649.609 142.592 652.249 142.592ZM714.981 110H722.661V150.992H714.981V110ZM704.325 125.072V110.192H711.909V150.272H704.325V132.752H699.429C696.981 143.648 690.165 148.976 682.437 149.072V141.488C688.629 141.008 692.661 135.008 692.661 123.488V118.256H682.437V110.96H700.437V123.2C700.437 123.824 700.437 124.448 700.389 125.072H704.325ZM735.041 141.728L732.065 154.16H725.681L727.409 141.728H735.041Z" fill="#205E72"/>
<path d="M795.424 129.008V133.184H759.472V111.2H794.8V115.376H764.224V120.176H794.272V124.208H764.224V129.008H795.424ZM797.584 138.032V142.352H779.488V151.952H774.64V142.352H756.64V138.032H797.584ZM834.252 110H839.004V150.992H834.252V131.456H826.38C825.996 143.456 821.052 149.072 814.188 149.072C806.988 149.072 801.948 143.024 801.948 130.016C801.948 117.008 806.988 110.96 814.188 110.96C820.764 110.96 825.564 116.048 826.284 126.992H834.252V110ZM814.188 144.704C818.412 144.704 821.628 140.432 821.628 130.016C821.628 119.648 818.412 115.328 814.188 115.328C809.916 115.328 806.7 119.648 806.7 130.016C806.7 140.432 809.916 144.704 814.188 144.704ZM887.048 126.608V131.168H881.288V150.992H876.536V110H881.288V126.608H887.048ZM850.808 144.176H862.376C866.264 144.176 870.488 143.456 872.984 142.256V146.576C870.488 147.824 866.216 148.544 862.28 148.544H846.104V127.52H864.008V115.856H846.008V111.488H868.76V131.888H850.808V144.176ZM908.404 132.272C897.412 132.272 890.164 128.144 890.164 121.328C890.164 114.512 897.412 110.384 908.404 110.384C919.396 110.384 926.644 114.512 926.644 121.328C926.644 128.144 919.396 132.272 908.404 132.272ZM908.404 114.656C900.628 114.656 895.108 117.056 895.108 121.328C895.108 125.6 900.628 128 908.404 128C916.18 128 921.7 125.6 921.7 121.328C921.7 117.056 916.18 114.656 908.404 114.656ZM928.9 136.064V140.48H910.804V151.952H905.956V140.48H887.956V136.064H928.9ZM970.607 133.424V137.696H934.463V111.488H969.983V115.76H939.215V122.48H969.455V126.656H939.215V133.424H970.607ZM931.727 144.656H972.671V149.024H931.727V144.656ZM979.051 150.608C977.131 150.608 975.643 149.12 975.643 147.2C975.643 145.28 977.131 143.792 979.051 143.792C980.971 143.792 982.411 145.28 982.411 147.2C982.411 149.12 980.971 150.608 979.051 150.608Z" fill="white"/>
<path d="M368.28 177.992V184.184H371.304V186.056H368.28V193.256H366.024V177.992H368.28ZM351.768 189.176C356.664 187.688 359.736 184.88 360.168 181.448H352.632V179.576H362.568C362.568 185.096 358.824 189.08 352.68 190.952L351.768 189.176ZM354.936 198.536V191.672H357.192V196.76H369.144V198.536H354.936ZM388.83 177.992V193.592H386.622V187.784H383.31V185.912H386.622V183.704H383.31V181.88H386.622V177.992H388.83ZM371.358 188.744L373.902 188.72V181.448H371.934V179.624H383.07V181.448H381.054V188.456C381.942 188.384 382.806 188.312 383.646 188.216L383.742 189.896C379.71 190.52 374.982 190.592 371.598 190.616L371.358 188.744ZM375.15 198.536V192.296H377.406V196.76H389.358V198.536H375.15ZM376.062 188.672C376.998 188.648 377.982 188.624 378.942 188.576V181.448H376.062V188.672ZM412.888 177.992V198.968H410.68V177.992H412.888ZM395.608 193.304C397.336 193.28 399.328 193.256 401.368 193.208V191.072C398.944 190.76 397.36 189.32 397.384 187.256C397.36 184.904 399.424 183.344 402.472 183.368C405.52 183.344 407.632 184.904 407.608 187.256C407.632 189.296 406.048 190.736 403.624 191.072V193.112C405.568 193.016 407.512 192.872 409.336 192.632L409.528 194.312C404.872 195.08 399.784 195.128 395.944 195.128L395.608 193.304ZM396.088 182.264V180.488H401.368V178.04H403.624V180.488H408.904V182.264H396.088ZM399.448 187.256C399.448 188.6 400.696 189.44 402.472 189.416C404.272 189.44 405.496 188.6 405.496 187.256C405.496 185.936 404.272 185.072 402.472 185.048C400.696 185.072 399.448 185.936 399.448 187.256ZM432.526 177.992V193.928H430.27V191.912H426.094V190.328H430.27V177.992H432.526ZM414.958 187.592C418.846 187.568 424.078 187.52 428.542 186.968L428.686 188.552C426.886 188.864 425.014 189.056 423.166 189.176V193.256H420.958V189.296C418.918 189.368 416.95 189.368 415.246 189.368L414.958 187.592ZM416.59 182.504C416.59 180.296 418.726 178.808 421.822 178.808C424.894 178.808 427.03 180.296 427.054 182.504C427.03 184.76 424.894 186.176 421.822 186.152C418.726 186.176 416.59 184.76 416.59 182.504ZM417.886 198.536V192.392H420.094V196.76H433.054V198.536H417.886ZM418.702 182.504C418.702 183.752 419.974 184.544 421.822 184.52C423.622 184.544 424.918 183.752 424.942 182.504C424.918 181.256 423.622 180.464 421.822 180.488C419.974 180.464 418.702 181.256 418.702 182.504ZM450.964 177.992V186.344H454.228V188.216H450.964V198.968H448.756V177.992H450.964ZM434.596 193.352C439.876 190.736 442.732 186.968 443.212 182.072H435.652V180.2H445.492C445.468 186.272 442.78 191.696 435.844 195.08L434.596 193.352ZM471.562 177.992V189.272H469.354V177.992H471.562ZM454.57 183.848C454.57 180.944 456.946 178.952 460.186 178.952C463.378 178.952 465.754 180.944 465.754 183.848C465.754 186.704 463.378 188.696 460.186 188.696C456.946 188.696 454.57 186.704 454.57 183.848ZM456.73 183.848C456.73 185.648 458.17 186.848 460.186 186.872C462.13 186.848 463.57 185.648 463.546 183.848C463.57 182.024 462.13 180.824 460.186 180.824C458.17 180.824 456.73 182.024 456.73 183.848ZM457.834 198.728V190.28H459.994V192.632H469.354V190.28H471.562V198.728H457.834ZM459.994 196.904H469.354V194.408H459.994V196.904ZM490.048 177.992V186.488H493.408V188.36H490.048V198.968H487.84V177.992H490.048ZM473.584 183.08V181.304H478.768V178.28H480.976V181.304H486.016V183.08H473.584ZM474.64 189.512C474.64 186.656 476.848 184.64 479.872 184.664C482.872 184.64 485.08 186.656 485.104 189.512C485.08 192.416 482.872 194.408 479.872 194.408C476.848 194.408 474.64 192.416 474.64 189.512ZM476.8 189.512C476.776 191.336 478.072 192.56 479.872 192.536C481.648 192.56 482.968 191.336 482.992 189.512C482.968 187.736 481.648 186.488 479.872 186.488C478.072 186.488 476.776 187.736 476.8 189.512ZM510.215 180.008V182.072C510.215 184.664 510.215 187.568 509.399 191.864L507.191 191.624C507.983 187.568 507.983 184.592 508.007 182.072V181.832H495.239V180.008H510.215ZM493.223 196.136V194.312H500.519V186.92H502.727V194.312H512.375V196.136H493.223ZM516.605 195.368L514.685 201.848H512.717L513.965 195.368H516.605ZM542.02 186.248V188.072H538.756V198.968H536.548V177.992H538.756V186.248H542.02ZM523.204 193.688V180.056H525.412V191.864C528.34 191.84 531.412 191.576 534.724 190.904L534.964 192.776C531.388 193.496 528.076 193.712 524.932 193.688H523.204ZM559.979 177.992V198.968H557.867V177.992H559.979ZM542.171 187.064C542.171 182.504 543.947 179.672 546.683 179.672C549.227 179.672 550.979 182.096 551.243 186.056H553.595V178.376H555.755V197.96H553.595V187.832H551.267C551.051 191.936 549.275 194.48 546.683 194.456C543.947 194.48 542.171 191.624 542.171 187.064ZM544.235 187.064C544.235 190.4 545.171 192.368 546.683 192.344C548.243 192.368 549.203 190.4 549.227 187.064C549.203 183.704 548.243 181.76 546.683 181.736C545.171 181.76 544.235 183.704 544.235 187.064ZM579.521 177.992V198.968H577.409V177.992H579.521ZM561.425 192.92C565.865 190.28 568.001 186.728 568.385 182.408H562.385V180.584H570.593C570.593 182.648 570.305 184.616 569.657 186.44H572.993V178.52H575.105V197.96H572.993V188.216H568.889C567.617 190.64 565.625 192.776 562.673 194.504L561.425 192.92ZM602.57 177.992V183.512H605.21V185.384H602.57V190.568H600.362V177.992H602.57ZM586.394 189.128V179.672H591.722V181.448H588.506V187.232C589.562 187.208 590.738 187.112 592.01 186.824L592.202 188.696C590.33 189.08 588.794 189.08 587.354 189.128H586.394ZM588.41 193.256V191.48H602.57V199.016H600.362V193.256H588.41ZM592.874 189.128V179.672H598.49V181.448H595.034V187.256C596.618 187.232 597.77 187.112 599.114 186.824L599.354 188.648C597.602 189.032 596.258 189.08 593.978 189.128H592.874ZM620.532 179.384V188.456H610.692V179.384H620.532ZM611.94 197.192C615.564 196.664 618.228 194.864 618.54 192.824H612.756V191.048H626.724V192.824H620.94C621.228 194.84 623.988 196.664 627.588 197.192L626.772 198.92C623.58 198.44 620.94 196.976 619.716 194.96C618.54 196.952 615.924 198.416 612.756 198.872L611.94 197.192ZM612.852 186.68H618.324V181.208H612.852V186.68ZM624.18 189.896V177.992H626.388V182.888H629.412V184.712H626.388V189.896H624.18ZM646.41 184.136V185.912H631.962V178.76H634.17V184.136H646.41ZM629.418 190.328V188.552H648.618V190.328H629.418ZM631.818 198.488V192.344H634.026V196.664H646.554V198.488H631.818ZM664.276 179.384V188.456H654.436V179.384H664.276ZM655.684 197.192C659.308 196.664 661.972 194.864 662.284 192.824H656.5V191.048H670.468V192.824H664.684C664.972 194.84 667.732 196.664 671.332 197.192L670.516 198.92C667.324 198.44 664.684 196.976 663.46 194.96C662.284 196.952 659.668 198.416 656.5 198.872L655.684 197.192ZM656.596 186.68H662.068V181.208H656.596V186.68ZM667.924 189.896V177.992H670.132V182.888H673.156V184.712H670.132V189.896H667.924ZM692.314 188.264V190.04H683.818V192.152H689.962V198.728H675.466V192.152H681.61V190.04H673.162V188.264H692.314ZM674.17 185.528C678.37 185.192 681.226 183.704 681.49 181.688H675.082V179.912H681.61V177.896H683.818V179.912H690.394V181.688H683.986C684.202 183.704 687.082 185.192 691.258 185.528L690.634 187.208C686.986 186.872 684.034 185.696 682.738 183.752C681.442 185.696 678.49 186.872 674.842 187.208L674.17 185.528ZM677.674 196.904H687.802V193.928H677.674V196.904ZM698.416 179.576C700.336 179.576 701.896 180.656 702.808 182.552H708.016V177.992H710.224V199.016H708.016V190.952H702.976C702.088 193.088 700.456 194.312 698.416 194.312C695.272 194.312 693.064 191.456 693.088 186.92C693.064 182.432 695.272 179.576 698.416 179.576ZM695.2 186.92C695.2 190.256 696.496 192.32 698.416 192.296C700.312 192.32 701.608 190.256 701.632 186.92C701.608 183.632 700.312 181.568 698.416 181.544C696.496 181.568 695.2 183.632 695.2 186.92ZM703.432 184.376C703.6 185.144 703.696 186.008 703.696 186.92C703.696 187.736 703.624 188.48 703.504 189.176H708.016V184.376H703.432ZM730.15 177.992V191.24H728.038V185.384H725.59V190.52H723.526V178.376H725.59V183.56H728.038V177.992H730.15ZM712.15 182.168V180.392H716.374V178.136H718.582V180.392H722.758V182.168H712.15ZM712.966 186.728C712.942 184.544 714.838 183.128 717.478 183.128C720.142 183.128 721.99 184.544 721.99 186.728C721.99 188.912 720.142 190.328 717.478 190.328C714.838 190.328 712.942 188.912 712.966 186.728ZM714.934 186.728C714.934 187.928 715.966 188.72 717.478 188.696C718.966 188.72 719.998 187.928 719.974 186.728C719.998 185.528 718.966 184.76 717.478 184.76C715.966 184.76 714.934 185.528 714.934 186.728ZM715.99 195.272C715.99 192.896 718.678 191.552 723.142 191.528C727.582 191.552 730.27 192.896 730.246 195.272C730.27 197.624 727.582 198.968 723.142 198.968C718.678 198.968 715.99 197.624 715.99 195.272ZM718.246 195.272C718.198 196.544 719.998 197.264 723.142 197.24C726.262 197.264 728.038 196.544 728.038 195.272C728.038 193.952 726.262 193.232 723.142 193.256C719.998 193.232 718.198 193.952 718.246 195.272ZM739.516 184.184C739.516 187.688 741.82 191.312 745.084 192.68L743.836 194.456C741.364 193.352 739.42 191.048 738.436 188.264C737.452 191.24 735.484 193.808 733.036 194.984L731.74 193.208C734.908 191.744 737.26 187.784 737.26 184.184V181.928H732.46V180.104H744.316V181.928H739.516V184.184ZM746.956 198.968V177.992H749.212V198.968H746.956ZM775.142 190.664V192.488H766.646V199.016H764.438V192.488H755.99V190.664H775.142ZM757.142 187.4C761.126 186.896 764.318 184.688 764.438 182.312H757.814V180.536H764.438V177.992H766.646V180.536H773.318V182.312H766.694C766.79 184.664 769.982 186.896 773.99 187.4L773.174 189.176C769.79 188.72 766.934 187.136 765.566 184.976C764.222 187.16 761.318 188.72 757.91 189.176L757.142 187.4ZM782.876 182.984C782.9 185.624 784.868 188.072 788.108 189.08L787.004 190.808C784.604 190.064 782.78 188.48 781.844 186.44C780.908 188.624 779.108 190.352 776.636 191.192L775.532 189.416C778.748 188.408 780.692 185.816 780.668 182.984V182.504H776.108V180.68H780.668V178.136H782.924V180.68H787.436V182.504H782.876V182.984ZM779.42 198.536V192.248H781.628V196.76H793.58V198.536H779.42ZM786.764 186.152V184.376H790.844V177.992H793.052V193.64H790.844V186.152H786.764ZM811.778 177.992V186.536H814.802V188.36H811.778V198.968H809.522V177.992H811.778ZM794.882 193.064C797.954 189.872 799.082 186.272 799.298 182.072H795.65V180.248H801.41C801.386 185.48 800.45 190.28 796.658 194.312L794.882 193.064ZM800.882 194.504C804.002 190.832 804.938 186.56 805.13 182.072H802.082V180.248H807.218C807.194 185.552 806.522 191.144 802.658 195.704L800.882 194.504ZM822.344 184.184C822.344 187.688 824.648 191.312 827.912 192.68L826.664 194.456C824.192 193.352 822.248 191.048 821.264 188.264C820.28 191.24 818.312 193.808 815.864 194.984L814.568 193.208C817.736 191.744 820.088 187.784 820.088 184.184V181.928H815.288V180.104H827.144V181.928H822.344V184.184ZM829.784 198.968V177.992H832.04V198.968H829.784ZM838.047 180.008L837.807 192.104H835.503L835.311 180.008H838.047ZM835.023 195.512C835.023 194.576 835.791 193.832 836.703 193.832C837.591 193.832 838.359 194.576 838.335 195.512C838.359 196.424 837.591 197.168 836.703 197.144C835.791 197.168 835.023 196.424 835.023 195.512Z" fill="#737D80"/>
<path d="M241.076 66.7919C243.528 66.7919 245.849 67.2704 248.002 68.1198C252.189 62.1505 259.115 58.2388 266.951 58.2388C276.951 58.2388 285.445 64.5908 288.687 73.467C290.589 72.6775 292.67 72.2348 294.859 72.2348C303.783 72.2348 311.02 79.4721 311.02 88.3961C311.02 97.3201 303.783 104.557 294.859 104.557H241.076C230.645 104.557 222.199 96.0999 222.199 85.6806C222.199 75.2613 230.657 66.8039 241.076 66.8039V66.7919Z" fill="#93F6F8"/>
<path d="M252.19 40.2472C242.704 33.4405 219.186 52.5326 208.934 61.6002C203.12 61.6002 195.763 62.4016 187.401 63.8132C179.04 65.153 171.802 66.7321 166.3 68.6102C153.679 63.2988 125.292 52.7599 118.486 62.2461C111.727 71.6606 124.61 92.3437 130.986 101.459C126.931 111.854 126.596 122.561 128.068 131.497C129.336 139.225 131.525 146.785 134.647 154.19C140.736 168.652 154.541 178.258 170.223 178.832C182.329 179.275 194.244 178.533 205.967 176.607C217.69 174.681 229.21 171.571 240.539 167.277C255.205 161.702 265.205 148.184 266.342 132.538C266.928 124.523 266.569 116.651 265.301 108.924C263.83 99.9877 260.085 89.9631 252.92 81.41C256.03 70.7514 261.616 47.0179 252.19 40.2472Z" fill="#B1B9C6"/>
<path d="M196.611 67.9642C198.716 80.7521 196.694 91.7217 192.125 92.4753C187.543 93.2289 182.124 83.4795 180.019 70.6917C179.732 68.9332 179.516 67.2226 179.385 65.5717C184.744 64.4353 190.139 63.5501 195.57 62.9161C195.977 64.531 196.324 66.2177 196.611 67.9642Z" fill="#91A2B5"/>
<path d="M178.094 66.6962C180.199 79.4721 178.19 90.4536 173.608 91.2073C169.206 91.937 163.99 82.8814 161.741 70.7874C164.469 69.5791 167.328 68.5623 170.294 67.7609C172.842 67.079 175.39 66.445 177.95 65.8828C178.01 66.1579 178.046 66.4211 178.094 66.6962Z" fill="#91A2B5"/>
<path d="M213.919 62.0907C215.69 74.3163 213.668 84.616 209.242 85.3457C204.66 86.0993 199.241 76.338 197.148 63.5621C197.1 63.2869 197.064 63.0238 197.028 62.7486C200.019 62.4137 203.033 62.1744 206.06 61.995C208.716 61.8395 211.347 61.8754 213.943 62.0907H213.919Z" fill="#91A2B5"/>
<path d="M245.873 61.4806C245.873 61.4806 247.692 64.2558 248.457 67.5814C249.175 70.6558 247.692 73.3234 245.407 74.723C239.306 69.7227 232.176 65.9904 224.461 63.8491C224.257 62.1504 224.688 60.38 225.848 58.9206C230.526 53.0111 237.249 46.372 242.991 47.6759C253.003 49.9607 245.861 61.4925 245.861 61.4925L245.873 61.4806Z" fill="white"/>
<path d="M131.262 80.3334C131.262 80.3334 130.437 83.5513 130.772 86.9367C131.071 90.0709 133.332 92.1404 135.951 92.7265C140.126 86.0395 145.689 80.2138 152.304 75.7159C151.957 74.0412 150.976 72.51 149.409 71.4812C143.081 67.3781 134.588 63.2391 129.563 66.3134C120.819 71.6846 131.262 80.3215 131.262 80.3215V80.3334Z" fill="white"/>
<path d="M268.1 108.457C266.999 101.77 264.033 90.8006 256.054 80.7402C257.657 75.0102 259.511 67.1149 260.073 59.5666C260.886 48.7645 258.781 41.4794 253.841 37.9385C243.756 30.7012 223.432 45.0801 207.845 58.7652C202.282 58.8489 195.296 59.5906 186.958 61.0021C178.585 62.3419 171.718 63.8731 166.419 65.5718C159.588 62.7367 149.911 59.1121 140.819 57.0904C127.96 54.2314 119.897 55.3678 116.165 60.5715C108.844 70.7755 119.885 90.2862 127.792 101.83C123.45 113.912 124.156 125.252 125.256 131.939C126.56 139.859 128.833 147.706 132.015 155.278C138.498 170.698 153.452 181.045 170.103 181.655C172.364 181.739 174.637 181.775 176.898 181.775C186.851 181.775 196.756 180.974 206.409 179.383C218.264 177.433 230.071 174.239 241.531 169.896C257.106 163.987 267.956 149.381 269.164 132.705C269.763 124.511 269.404 116.352 268.1 108.433V108.457ZM263.494 132.322C262.442 146.809 253.027 159.477 239.509 164.609C228.408 168.82 216.96 171.906 205.488 173.796C194.004 175.686 182.173 176.428 170.319 175.985C155.868 175.459 142.889 166.463 137.254 153.077C134.24 145.924 132.087 138.495 130.854 131.018C129.503 122.776 128.797 106.735 139.312 91.9131C140.221 90.6331 139.922 88.8627 138.642 87.9535C137.362 87.0444 135.592 87.3434 134.682 88.6234C133.044 90.9322 131.656 93.2649 130.472 95.5975C120.902 80.8359 117.193 68.8854 120.782 63.8731C124.227 59.0762 138.869 60.9902 158.835 68.6461C155.964 70.0697 153.236 71.6367 150.712 73.2995C149.408 74.1728 149.049 75.9313 149.911 77.2352C150.461 78.0606 151.358 78.5032 152.279 78.5032C152.818 78.5032 153.368 78.3477 153.846 78.0247C156.622 76.1825 159.66 74.4838 162.878 72.9646C168.01 70.5482 176.396 68.4069 187.856 66.5766C199.268 64.6507 207.917 63.9927 213.539 64.6387C217.08 65.0454 220.501 65.6794 223.719 66.5407C225.238 66.9475 226.793 66.0383 227.2 64.5191C227.607 62.9999 226.698 61.4447 225.178 61.038C222.248 60.2605 219.161 59.6623 215.991 59.2197C232.44 45.5586 245.694 39.063 250.503 42.5082C255.503 46.0969 255.826 58.5977 251.496 75.6561C249.63 73.8259 247.572 72.0554 245.275 70.3927C244.007 69.4715 242.225 69.7586 241.304 71.0267C240.383 72.2947 240.67 74.0771 241.938 74.9982C256.652 85.6687 261.114 101.088 262.477 109.33C263.71 116.807 264.045 124.523 263.482 132.274L263.494 132.322Z" fill="#678490"/>
<path d="M234.46 120.252C233.766 116.006 229.746 113.123 225.5 113.816C221.253 114.51 218.37 118.53 219.064 122.776C219.758 127.023 223.777 129.906 228.024 129.212C232.271 128.518 235.153 124.499 234.46 120.252Z" fill="#605C5D"/>
<path d="M176.3 129.822C175.606 125.575 171.586 122.692 167.34 123.386C163.093 124.08 160.21 128.1 160.904 132.346C161.598 136.593 165.617 139.476 169.864 138.782C174.11 138.088 176.993 134.069 176.3 129.822Z" fill="#605C5D"/>
<path d="M235.908 133.794C234.795 133.794 233.803 132.98 233.611 131.844C233.408 130.576 234.257 129.38 235.525 129.176L247.691 127.179C248.959 126.963 250.155 127.824 250.359 129.093C250.562 130.361 249.713 131.557 248.445 131.76L236.279 133.758C236.147 133.782 236.028 133.794 235.896 133.794H235.908Z" fill="#91A2B5"/>
<path d="M150.95 147.766C149.837 147.766 148.845 146.952 148.653 145.816C148.45 144.548 149.299 143.352 150.567 143.148L162.733 141.151C164.001 140.947 165.197 141.797 165.401 143.065C165.604 144.333 164.755 145.529 163.487 145.732L151.321 147.73C151.189 147.754 151.07 147.766 150.938 147.766H150.95Z" fill="#91A2B5"/>
<path d="M155.052 158.831C154.238 158.831 153.461 158.412 153.03 157.659C152.396 156.546 152.779 155.123 153.903 154.489L163.246 149.165C164.358 148.531 165.782 148.914 166.416 150.039C167.05 151.151 166.667 152.575 165.543 153.209L156.2 158.532C155.841 158.735 155.446 158.843 155.052 158.843V158.831Z" fill="#91A2B5"/>
<path d="M212.669 109.019C211.305 109.019 210.097 108.027 209.869 106.639C209.618 105.084 210.659 103.624 212.214 103.373L218.59 102.321C220.133 102.069 221.605 103.11 221.856 104.665C222.107 106.22 221.066 107.68 219.511 107.931L213.135 108.984C212.98 109.008 212.824 109.019 212.669 109.019Z" fill="white"/>
<path d="M170.668 115.934C169.304 115.934 168.096 114.941 167.868 113.553C167.617 112.01 168.658 110.539 170.213 110.287L176.589 109.235C178.132 108.984 179.604 110.024 179.855 111.579C180.106 113.123 179.065 114.594 177.51 114.845L171.134 115.898C170.979 115.922 170.823 115.934 170.668 115.934Z" fill="white"/>
<path d="M211.1 122.944C209.545 122.812 208.157 123.973 208.037 125.54C207.894 127.274 206.59 128.686 204.867 128.973C203.862 129.14 202.858 128.901 202.032 128.315C201.207 127.729 200.656 126.844 200.501 125.851C200.453 125.587 200.369 125.336 200.262 125.097L200.979 124.977C202.523 124.726 203.575 123.255 203.324 121.712C203.073 120.156 201.601 119.116 200.058 119.367L193.228 120.491C191.685 120.743 190.632 122.214 190.883 123.757C191.11 125.145 192.319 126.138 193.682 126.138C193.838 126.138 193.993 126.126 194.149 126.102L194.879 125.982C194.867 126.09 194.855 126.198 194.855 126.305C194.855 126.461 194.867 126.616 194.891 126.772C195.225 128.841 193.826 130.803 191.756 131.138C190.034 131.425 188.347 130.504 187.653 128.901C187.031 127.466 185.356 126.796 183.921 127.43C182.485 128.052 181.816 129.726 182.45 131.162C183.969 134.667 187.414 136.868 191.134 136.868C191.649 136.868 192.163 136.832 192.689 136.736C195.237 136.318 197.379 134.918 198.802 132.98C200.848 134.416 203.336 134.99 205.8 134.583C210.095 133.877 213.349 130.349 213.707 126.018C213.839 124.451 212.679 123.075 211.112 122.956L211.1 122.944Z" fill="#678490"/>
<path d="M313.198 179.514C305.267 161.307 281.533 167.683 281.533 167.683C276.389 155.159 265.863 144.117 245.407 140.887C219.723 136.82 192.676 152.575 171.24 170.399C137.374 165.626 115.746 173.76 112.647 179.43C109.824 184.61 125.974 195.065 138.881 202.374C133.295 208.822 130.101 213.081 130.101 213.081L108.903 196.381C104.836 193.175 99.4528 192.206 94.5123 193.773L77.5854 199.169C73.1354 200.58 71.3889 205.939 74.1403 209.707C78.9492 216.311 86.4616 226.168 94.6439 235.283C92.0002 240.236 88.7464 247.246 90.7441 248.334C92.2992 249.184 97.2756 248.43 103.64 244.65C109.537 250.32 115.423 254.926 120.567 257.079C130.376 261.182 142.948 262.833 156.777 262.558C149.839 275.716 141.776 293.457 146.992 296.304C154.205 300.239 188.657 291.339 222.57 250.141C226.865 248.681 231.076 247.126 235.155 245.475C267.98 232.233 323.857 203.965 313.198 179.502V179.514Z" fill="#6EE3CE"/>
<path d="M281.533 167.683C266.269 172.169 243.863 187.134 240 169.669C236.949 155.924 253.242 149.967 266.413 148.735L281.533 167.683Z" fill="#93F6F8"/>
<path d="M198.069 193.151C200.533 201.537 196.167 210.21 188.307 212.507C180.448 214.803 172.086 209.887 169.634 201.501C167.17 193.115 171.536 184.443 179.395 182.146C187.243 179.837 195.605 184.766 198.069 193.151Z" fill="#93F6F8"/>
<path d="M184.35 215.916C181.3 215.916 178.273 215.091 175.51 213.452C171.359 211.011 168.309 207.04 166.909 202.291C164.002 192.41 169.242 182.146 178.596 179.407C187.939 176.667 197.904 182.457 200.799 192.338C202.198 197.087 201.768 202.075 199.602 206.382C197.401 210.748 193.681 213.894 189.123 215.234C187.556 215.689 185.953 215.928 184.362 215.928L184.35 215.916ZM183.321 184.407C182.281 184.407 181.228 184.55 180.187 184.861C173.847 186.728 170.342 193.821 172.352 200.7C173.345 204.061 175.486 206.848 178.381 208.559C181.228 210.234 184.458 210.664 187.496 209.779C190.535 208.882 193.023 206.777 194.506 203.822C196.026 200.807 196.313 197.302 195.332 193.941C193.645 188.199 188.621 184.407 183.309 184.407H183.321Z" fill="#00D4D7"/>
<path d="M167.558 216.454C170.022 224.84 165.656 233.512 157.797 235.809C149.949 238.118 141.576 233.189 139.123 224.804C136.659 216.418 141.025 207.745 148.885 205.448C156.732 203.14 165.106 208.068 167.558 216.454Z" fill="#93F6F8"/>
<path d="M153.884 239.231C146.12 239.231 138.811 233.835 136.407 225.617C135.007 220.868 135.438 215.88 137.603 211.573C139.804 207.207 143.524 204.061 148.082 202.721C152.64 201.381 157.473 202.015 161.683 204.492C165.834 206.944 168.885 210.903 170.284 215.653C173.191 225.534 167.952 235.797 158.597 238.537C157.03 239.003 155.439 239.219 153.872 239.219L153.884 239.231ZM152.831 207.733C151.779 207.733 150.714 207.889 149.685 208.188C146.647 209.085 144.158 211.191 142.675 214.145C141.156 217.16 140.869 220.665 141.85 224.026C143.871 230.893 150.666 234.972 157.006 233.106C163.346 231.24 166.851 224.146 164.842 217.267C163.849 213.906 161.707 211.119 158.812 209.408C156.934 208.308 154.889 207.733 152.843 207.733H152.831Z" fill="#00D4D7"/>
<path d="M221.92 193.698C229.774 191.391 234.144 182.723 231.68 174.336C229.217 165.95 220.853 161.022 212.999 163.329C205.145 165.636 200.775 174.305 203.239 182.691C205.702 191.077 214.066 196.006 221.92 193.698Z" fill="#93F6F8"/>
<path d="M217.963 197.087C214.913 197.087 211.887 196.262 209.123 194.623C204.972 192.182 201.922 188.211 200.522 183.462C197.615 173.581 202.855 163.317 212.21 160.578C221.552 157.838 231.517 163.628 234.412 173.509C235.811 178.258 235.381 183.246 233.216 187.553C231.015 191.919 227.294 195.065 222.737 196.405C221.169 196.86 219.566 197.099 217.975 197.099L217.963 197.087ZM216.935 165.578C215.894 165.578 214.841 165.721 213.801 166.032C207.46 167.899 203.955 174.992 205.965 181.871C206.958 185.232 209.099 188.019 211.994 189.73C214.841 191.405 218.071 191.835 221.11 190.95C224.148 190.053 226.636 187.948 228.12 184.993C229.639 181.978 229.926 178.473 228.945 175.112C227.258 169.37 222.234 165.578 216.923 165.578H216.935Z" fill="#00D4D7"/>
<path d="M315.806 178.378C312.133 169.932 304.824 164.944 294.68 163.939C287.323 163.209 281.067 164.86 280.803 164.932C279.284 165.339 278.387 166.894 278.794 168.413C279.2 169.932 280.756 170.829 282.275 170.423C283.148 170.195 303.759 164.932 310.602 180.651C312.121 184.144 312.061 187.816 310.41 191.859C303.101 209.719 266.209 229.912 234.114 242.855C233.073 243.274 232.008 243.693 230.944 244.099C234.724 239.039 238.516 233.525 242.26 227.496C243.086 226.168 242.679 224.409 241.351 223.584C240.023 222.758 238.265 223.165 237.439 224.493C216.828 257.605 195.2 274.951 180.678 283.671C163.631 293.911 151.298 295.347 148.415 293.839C148.295 293.636 147.589 292.033 149.444 286.052L170.677 277.235C173.153 276.207 175.199 274.317 176.431 271.936L190.355 244.877C191.073 243.477 190.523 241.767 189.135 241.049C187.735 240.331 186.025 240.882 185.307 242.269L171.383 269.328C170.761 270.524 169.744 271.47 168.5 271.984L152.159 278.767C153.176 276.362 154.432 273.587 156.011 270.381C161.298 259.615 167.351 249.554 167.411 249.459C168.225 248.119 167.794 246.372 166.454 245.559C165.114 244.745 163.368 245.176 162.554 246.516C162.507 246.588 159.073 252.282 155.102 259.722C141.608 259.842 130.375 258.072 121.703 254.447C117.958 252.88 113.449 249.722 108.281 245.056C114.645 240.582 121.631 233.584 127.875 223.56C128.701 222.232 128.294 220.474 126.966 219.648C125.638 218.823 123.88 219.229 123.054 220.557C115.817 232.197 108.257 238.429 103.197 241.623C98.5553 244.542 94.9905 245.559 93.1602 245.762C93.8541 243.047 96.6652 237.149 99.931 231.742C100.744 230.402 100.314 228.656 98.974 227.842C97.6342 227.029 95.8877 227.46 95.0742 228.799C94.7752 229.29 94.4761 229.804 94.1531 230.355C87.1311 222.256 80.7671 213.894 76.4846 208.009C75.719 206.956 75.5156 205.652 75.9104 204.42C76.3171 203.188 77.2502 202.255 78.4943 201.86L95.4211 196.465C99.4525 195.185 103.855 195.974 107.18 198.594L128.378 215.294C128.976 215.772 129.741 215.976 130.507 215.88C131.261 215.784 131.954 215.378 132.409 214.767C132.445 214.732 135.627 210.509 141.07 204.217C148.164 196.022 159.48 183.868 173.081 172.564C185.14 162.551 196.863 154.955 207.928 150.015C221.302 144.034 233.779 141.904 245 143.675C252.763 144.907 259.438 147.395 264.857 151.067C266.161 151.953 267.92 151.606 268.805 150.314C269.69 149.01 269.343 147.251 268.051 146.366C261.939 142.227 254.486 139.428 245.885 138.064C223.754 134.559 198.358 144.44 170.414 167.408C137.302 163.018 114.202 170.698 110.183 178.055C107.443 183.067 113.413 188.606 118.138 192.326C122.169 195.508 127.684 199.133 134.526 203.128C132.421 205.616 130.77 207.65 129.646 209.073L110.685 194.144C105.876 190.352 99.5123 189.204 93.6746 191.058L76.7478 196.453C73.7452 197.41 71.4723 199.671 70.4914 202.661C69.5105 205.652 70.0129 208.822 71.867 211.37C76.4965 217.722 83.5185 226.945 91.2104 235.666C88.782 240.427 86.7483 245.571 87.49 248.322C87.7891 249.423 88.471 250.308 89.416 250.822C90.1935 251.253 91.2462 251.468 92.5143 251.468C95.2417 251.468 98.9979 250.428 103.257 248.167C109.405 253.885 114.872 257.773 119.514 259.71C128.234 263.359 139.192 265.261 152.147 265.417C152.016 265.68 151.884 265.943 151.752 266.206C147.099 275.513 141.106 288.624 142.84 295.048C143.426 297.201 144.694 298.277 145.663 298.816C147.063 299.581 149.073 300 151.621 300C158.715 300 169.959 296.758 183.62 288.552C194.446 282.044 209.065 270.955 224.305 252.569C228.396 251.169 232.415 249.674 236.255 248.119C252.357 241.623 305.661 218.536 315.686 194.001C317.923 188.546 317.971 183.282 315.829 178.378H315.806ZM115.171 180.746C116.128 179.083 121.093 175.89 131.009 173.76C138.007 172.265 149.216 170.937 164.48 172.432C153.702 181.907 144.623 191.536 138.295 198.738C115.961 185.842 115.207 181.129 115.183 180.734L115.171 180.746Z" fill="#4ECAB3"/>
<path d="M249.773 180.758C247.464 180.758 245.335 180.34 243.457 179.359C240.287 177.696 238.193 174.645 237.224 170.279C236.16 165.482 237.009 161.164 239.725 157.419C241.842 154.513 248.649 147.562 266.018 145.912C266.688 145.816 267.406 145.959 268.004 146.366C275.217 151.259 280.648 158.065 284.153 166.595C284.44 167.3 284.44 168.078 284.153 168.784C283.854 169.478 283.292 170.028 282.586 170.315C282.502 170.351 282.419 170.375 282.335 170.399C278.914 171.404 275.11 172.959 271.09 174.61C263.673 177.648 256.077 180.758 249.773 180.758ZM265.671 151.666C257.74 152.563 248.254 155.374 244.33 160.769C242.584 163.173 242.081 165.877 242.775 169.047C243.373 171.739 244.45 173.461 246.089 174.322C250.79 176.787 260.432 172.839 268.937 169.358C271.844 168.174 274.811 166.954 277.646 165.961C274.751 160.099 270.743 155.314 265.671 151.666Z" fill="#00D4D7"/>
<path d="M134.17 202.291C128.87 196.046 133.189 190.879 139.433 185.591C145.677 180.292 151.479 176.882 156.779 183.115C162.078 189.359 161.3 198.714 155.068 204.001C148.824 209.301 139.469 208.523 134.181 202.291H134.17Z" fill="#B1B9C6"/>
<path d="M145.507 210.377C145.016 210.377 144.526 210.353 144.036 210.318C139.334 209.935 135.064 207.734 132.013 204.133C128.843 200.389 128.125 196.465 129.884 192.446C131.403 188.977 134.645 185.938 137.612 183.426C140.578 180.914 144.107 178.21 147.78 177.277C152.026 176.201 155.795 177.54 158.965 181.285C162.015 184.885 163.487 189.455 163.104 194.156C162.721 198.858 160.52 203.128 156.931 206.179C153.713 208.906 149.706 210.377 145.531 210.377H145.507ZM150.483 182.601C150.017 182.601 149.574 182.672 149.167 182.78C146.607 183.426 143.605 185.783 141.284 187.756C138.951 189.73 136.152 192.302 135.088 194.73C134.478 196.118 134.155 197.877 136.344 200.46C138.413 202.901 141.308 204.384 144.502 204.647C147.696 204.899 150.794 203.918 153.235 201.848C155.675 199.779 157.158 196.884 157.422 193.69C157.685 190.496 156.692 187.397 154.622 184.957C153.055 183.103 151.68 182.601 150.495 182.601H150.483Z" fill="#678490"/>
<path d="M308.302 203.583C313.662 209.767 309.403 214.983 303.218 220.342C297.034 225.701 291.268 229.182 285.909 222.998C280.549 216.813 281.207 207.446 287.392 202.087C293.577 196.728 302.943 197.386 308.302 203.571V203.583Z" fill="#B1B9C6"/>
<path d="M292.059 229.111C289.307 229.111 286.448 227.974 283.757 224.864C280.67 221.299 279.151 216.741 279.486 212.04C279.821 207.339 281.974 203.044 285.539 199.946C289.104 196.86 293.662 195.341 298.363 195.675C303.064 196.01 307.359 198.152 310.457 201.717C313.675 205.425 314.428 209.349 312.718 213.38C311.234 216.861 308.028 219.935 305.098 222.483C302.454 224.78 297.466 229.099 292.083 229.099L292.059 229.111ZM297.083 201.31C294.2 201.31 291.448 202.339 289.247 204.241C286.831 206.334 285.372 209.253 285.144 212.447C284.917 215.641 285.946 218.727 288.039 221.144C290.862 224.397 293.685 224.828 301.341 218.201C303.65 216.203 306.425 213.595 307.466 211.167C308.052 209.779 308.363 208.009 306.15 205.449C304.057 203.032 301.138 201.573 297.944 201.346C297.657 201.322 297.358 201.31 297.071 201.31H297.083Z" fill="#678490"/>
<path d="M120.555 145.744C119.203 145.744 117.899 146.007 116.715 146.486C114.394 143.172 110.554 141.007 106.2 141.007C100.649 141.007 95.9482 144.524 94.1419 149.453C93.0892 149.01 91.9288 148.771 90.7206 148.771C85.7682 148.771 81.7607 152.778 81.7607 157.731C81.7607 162.683 85.7682 166.69 90.7206 166.69H120.555C126.345 166.69 131.034 162.001 131.034 156.211C131.034 150.421 126.345 145.732 120.555 145.732V145.744Z" fill="#93F6F8"/>
<defs>
<linearGradient id="paint0_linear_378_329" x1="540" y1="0" x2="540" y2="300" gradientUnits="userSpaceOnUse">
<stop stop-color="#3AD0FF"/>
<stop offset="1" stop-color="#3AD0FF" stop-opacity="0"/>
</linearGradient>
</defs>
</svg>
