<svg width="100" height="14" viewBox="0 0 100 14" fill="none" xmlns="http://www.w3.org/2000/svg">
<g clip-path="url(#clip0_762_11494)">
<path d="M4.0114 13.1196V3.69899H0.0766602V0.364422H12.4759V3.69899H8.54115V13.1196H4.0114ZM20.5091 13.4111C19.4215 13.4111 18.4106 13.2471 17.4765 12.9192C16.5552 12.5912 15.7555 12.1295 15.0772 11.5343C14.3991 10.9269 13.868 10.2162 13.4841 9.40238C13.1131 8.58848 12.9275 7.70168 12.9275 6.74201C12.9275 5.77018 13.1131 4.8834 13.4841 4.08165C13.868 3.26775 14.3991 2.56317 15.0772 1.96793C15.7555 1.36054 16.5552 0.892851 17.4765 0.564862C18.4106 0.236871 19.4215 0.072876 20.5091 0.072876C21.6096 0.072876 22.6204 0.236871 23.5417 0.564862C24.463 0.892851 25.2628 1.36054 25.941 1.96793C26.6192 2.56317 27.1438 3.26775 27.5149 4.08165C27.8987 4.8834 28.0907 5.77018 28.0907 6.74201C28.0907 7.70168 27.8987 8.58848 27.5149 9.40238C27.1438 10.2162 26.6192 10.9269 25.941 11.5343C25.2628 12.1295 24.463 12.5912 23.5417 12.9192C22.6204 13.2471 21.6096 13.4111 20.5091 13.4111ZM20.5091 9.9308C20.9314 9.9308 21.3217 9.85792 21.6799 9.71214C22.051 9.56637 22.3709 9.35983 22.6396 9.09261C22.9212 8.8132 23.1387 8.47915 23.2922 8.09042C23.4458 7.68954 23.5225 7.24007 23.5225 6.74201C23.5225 6.24395 23.4458 5.80056 23.2922 5.41183C23.1387 5.01095 22.9212 4.67688 22.6396 4.40964C22.3709 4.13023 22.051 3.91765 21.6799 3.77188C21.3217 3.6261 20.9314 3.55322 20.5091 3.55322C20.0868 3.55322 19.6902 3.6261 19.3191 3.77188C18.9608 3.91765 18.641 4.13023 18.3594 4.40964C18.0907 4.67688 17.8795 5.01095 17.726 5.41183C17.5724 5.80056 17.4957 6.24395 17.4957 6.74201C17.4957 7.24007 17.5724 7.68954 17.726 8.09042C17.8795 8.47915 18.0907 8.8132 18.3594 9.09261C18.641 9.35983 18.9608 9.56637 19.3191 9.71214C19.6902 9.85792 20.0868 9.9308 20.5091 9.9308ZM36.1648 13.4111C34.1046 13.4111 32.4987 12.8827 31.3471 11.8259C30.1955 10.769 29.6197 9.28694 29.6197 7.37977V0.364422H34.1494V7.25222C34.1494 8.22404 34.3349 8.91647 34.706 9.32949C35.077 9.73037 35.5761 9.9308 36.2031 9.9308C36.8429 9.9308 37.3419 9.73037 37.7003 9.32949C38.0713 8.91647 38.2569 8.22404 38.2569 7.25222V0.364422H42.7099V7.37977C42.7099 9.28694 42.134 10.769 40.9824 11.8259C39.8308 12.8827 38.2248 13.4111 36.1648 13.4111ZM64.0975 13.2289C63.0738 13.2289 62.1653 13.0164 61.372 12.5912C60.5786 12.166 59.9516 11.5829 59.491 10.8419C59.0303 10.0887 58.8 9.23838 58.8 8.29085C58.8 7.33118 59.0303 6.48083 59.491 5.73982C59.9516 4.99881 60.5786 4.42178 61.372 4.00876C62.1653 3.58358 63.0738 3.371 64.0975 3.371C65.1083 3.371 66.0104 3.58358 66.8038 4.00876C67.61 4.42178 68.2369 4.99881 68.6848 5.73982C69.1455 6.46869 69.3758 7.31903 69.3758 8.29085C69.3758 9.2505 69.1455 10.1009 68.6848 10.8419C68.2369 11.5829 67.61 12.166 66.8038 12.5912C66.0104 13.0164 65.1083 13.2289 64.0975 13.2289ZM64.0975 11.6983C64.7501 11.6983 65.3323 11.5586 65.8441 11.2792C66.3688 10.9998 66.7782 10.605 67.0725 10.0948C67.3669 9.57248 67.514 8.97113 67.514 8.29085C67.514 7.59843 67.3669 7.00319 67.0725 6.50513C66.7782 5.99492 66.3688 5.60012 65.8441 5.32072C65.3323 5.04132 64.7501 4.90162 64.0975 4.90162C63.4449 4.90162 62.8627 5.04132 62.3508 5.32072C61.839 5.60012 61.4295 5.99492 61.1224 6.50513C60.8153 7.00319 60.6618 7.59843 60.6618 8.29085C60.6618 8.97113 60.8153 9.57248 61.1224 10.0948C61.4295 10.605 61.839 10.9998 62.3508 11.2792C62.8627 11.5586 63.4449 11.6983 64.0975 11.6983ZM75.2446 13.2289C74.3745 13.2289 73.6067 13.077 72.9413 12.7734C72.2887 12.4697 71.7769 12.0081 71.4058 11.3885C71.0476 10.7569 70.8684 9.96725 70.8684 9.01972V3.46211H72.711V8.81928C72.711 9.76681 72.9478 10.4775 73.4212 10.9512C73.9075 11.425 74.5856 11.6619 75.4557 11.6619C76.0956 11.6619 76.6522 11.5404 77.1256 11.2974C77.599 11.0423 77.9637 10.6779 78.2197 10.2041C78.4756 9.71825 78.6035 9.13515 78.6035 8.45485V3.46211H80.4461V13.1196H78.6995V10.5139L78.9874 11.2063C78.6547 11.8502 78.1556 12.3482 77.4903 12.7005C76.8249 13.0528 76.0764 13.2289 75.2446 13.2289ZM86.8715 13.2289C85.8478 13.2289 85.0544 12.9677 84.4914 12.4454C83.9284 11.9231 83.6469 11.176 83.6469 10.2041V1.34839H85.4895V10.1312C85.4895 10.6536 85.6239 11.0544 85.8926 11.3339C86.1741 11.6133 86.5707 11.753 87.0826 11.753C87.6584 11.753 88.1383 11.6011 88.5221 11.2974L89.098 12.5547C88.8164 12.7855 88.4773 12.9556 88.0807 13.0649C87.6968 13.1743 87.2937 13.2289 86.8715 13.2289ZM81.9195 4.90162V3.46211H88.407V4.90162H81.9195ZM95.2795 13.2289C94.1919 13.2289 93.2322 13.0164 92.4005 12.5912C91.5816 12.166 90.9417 11.5829 90.4811 10.8419C90.0332 10.1009 89.8093 9.2505 89.8093 8.29085C89.8093 7.33118 90.0269 6.48083 90.4619 5.73982C90.9098 4.99881 91.5175 4.42178 92.2853 4.00876C93.0658 3.58358 93.9424 3.371 94.9149 3.371C95.9002 3.371 96.7705 3.57752 97.5248 3.99054C98.2801 4.40356 98.8684 4.98665 99.2907 5.73982C99.7264 6.48083 99.9433 7.3494 99.9433 8.34552C99.9433 8.4184 99.9375 8.50344 99.9241 8.60062C99.9241 8.69781 99.9183 8.78892 99.9049 8.87395H91.2488V7.61665H98.9452L98.1966 8.05397C98.2101 7.43443 98.0757 6.88171 97.7936 6.3958C97.5124 5.90989 97.1218 5.5333 96.6227 5.26605C96.1371 4.98665 95.5674 4.84696 94.9149 4.84696C94.275 4.84696 93.7056 4.98665 93.2066 5.26605C92.7076 5.5333 92.3173 5.91596 92.0358 6.41402C91.7543 6.89993 91.6135 7.45873 91.6135 8.09042V8.38196C91.6135 9.0258 91.7671 9.60281 92.0742 10.113C92.394 10.6111 92.8355 10.9998 93.3985 11.2792C93.9616 11.5586 94.6078 11.6983 95.3371 11.6983C95.9386 11.6983 96.4826 11.6011 96.9682 11.4068C97.4673 11.2124 97.903 10.9209 98.2734 10.5321L99.2907 11.6619C98.83 12.1721 98.2542 12.5608 97.5632 12.8281C96.8857 13.0953 96.1237 13.2289 95.2795 13.2289Z" fill="white"/>
<path d="M44.7864 13.1196V0.364441H51.2547C52.5087 0.364441 53.59 0.558805 54.4985 0.947536C55.4198 1.33627 56.1299 1.89506 56.629 2.62393C57.128 3.34065 57.3775 4.19099 57.3775 5.17496C57.3775 6.15894 57.128 7.00928 56.629 7.726C56.1299 8.43057 55.4198 8.97115 54.4985 9.34773C53.59 9.72428 52.5087 9.9126 51.2547 9.9126H47.3008L49.3161 8.1451V13.1196H44.7864ZM52.8286 13.1196L49.5273 8.47309H54.3257L57.6655 13.1196H52.8286ZM49.3161 8.61886L47.3008 6.66914H50.9668C51.5939 6.66914 52.0545 6.53551 52.3488 6.26827C52.6559 6.00102 52.8094 5.63658 52.8094 5.17496C52.8094 4.71335 52.6559 4.34891 52.3488 4.08166C52.0545 3.81442 51.5939 3.68079 50.9668 3.68079H47.3008L49.3161 1.73107V8.61886Z" fill="#26292B"/>
</g>
<defs>
<clipPath id="clip0_762_11494">
<rect width="100" height="13.484" fill="white"/>
</clipPath>
</defs>
</svg>
