<svg width="100" height="14" viewBox="0 0 100 14" fill="none" xmlns="http://www.w3.org/2000/svg">
<g clip-path="url(#clip0_221_329)">
<path d="M4.01152 13.1196V3.69899H0.0767822V0.364422H12.476V3.69899H8.54127V13.1196H4.01152ZM20.5092 13.4111C19.4216 13.4111 18.4108 13.2471 17.4766 12.9192C16.5553 12.5912 15.7556 12.1295 15.0774 11.5343C14.3992 10.9269 13.8681 10.2162 13.4843 9.40238C13.1132 8.58848 12.9276 7.70168 12.9276 6.74201C12.9276 5.77018 13.1132 4.8834 13.4843 4.08165C13.8681 3.26775 14.3992 2.56317 15.0774 1.96793C15.7556 1.36054 16.5553 0.892851 17.4766 0.564862C18.4108 0.236871 19.4216 0.072876 20.5092 0.072876C21.6097 0.072876 22.6205 0.236871 23.5418 0.564862C24.4632 0.892851 25.263 1.36054 25.9411 1.96793C26.6193 2.56317 27.144 3.26775 27.515 4.08165C27.8989 4.8834 28.0908 5.77018 28.0908 6.74201C28.0908 7.70168 27.8989 8.58848 27.515 9.40238C27.144 10.2162 26.6193 10.9269 25.9411 11.5343C25.263 12.1295 24.4632 12.5912 23.5418 12.9192C22.6205 13.2471 21.6097 13.4111 20.5092 13.4111ZM20.5092 9.9308C20.9315 9.9308 21.3218 9.85792 21.68 9.71214C22.0512 9.56637 22.371 9.35983 22.6397 9.09261C22.9213 8.81321 23.1388 8.47915 23.2923 8.09041C23.4459 7.68954 23.5227 7.24007 23.5227 6.74201C23.5227 6.24395 23.4459 5.80056 23.2923 5.41183C23.1388 5.01095 22.9213 4.67688 22.6397 4.40964C22.371 4.13023 22.0512 3.91765 21.68 3.77188C21.3218 3.6261 20.9315 3.55322 20.5092 3.55322C20.087 3.55322 19.6903 3.6261 19.3192 3.77188C18.9609 3.91765 18.6411 4.13023 18.3595 4.40964C18.0908 4.67688 17.8797 5.01095 17.7261 5.41183C17.5726 5.80056 17.4958 6.24395 17.4958 6.74201C17.4958 7.24007 17.5726 7.68954 17.7261 8.09041C17.8797 8.47915 18.0908 8.81321 18.3595 9.09261C18.6411 9.35983 18.9609 9.56637 19.3192 9.71214C19.6903 9.85792 20.087 9.9308 20.5092 9.9308ZM36.1649 13.4111C34.1047 13.4111 32.4989 12.8827 31.3472 11.8259C30.1956 10.769 29.6198 9.28694 29.6198 7.37977V0.364422H34.1495V7.25222C34.1495 8.22404 34.335 8.91647 34.7061 9.32949C35.0772 9.73037 35.5762 9.9308 36.2033 9.9308C36.843 9.9308 37.342 9.73037 37.7004 9.32949C38.0714 8.91647 38.257 8.22404 38.257 7.25222V0.364422H42.71V7.37977C42.71 9.28694 42.1342 10.769 40.9825 11.8259C39.8309 12.8827 38.225 13.4111 36.1649 13.4111ZM64.0976 13.2289C63.0739 13.2289 62.1655 13.0164 61.3721 12.5912C60.5787 12.166 59.9517 11.5829 59.4911 10.8419C59.0304 10.0887 58.8001 9.23838 58.8001 8.29085C58.8001 7.33118 59.0304 6.48083 59.4911 5.73982C59.9517 4.99881 60.5787 4.42178 61.3721 4.00876C62.1655 3.58358 63.0739 3.371 64.0976 3.371C65.1085 3.371 66.0106 3.58358 66.8039 4.00876C67.6101 4.42178 68.2371 4.99881 68.6849 5.73982C69.1456 6.46869 69.3759 7.31903 69.3759 8.29085C69.3759 9.2505 69.1456 10.1009 68.6849 10.8419C68.2371 11.5829 67.6101 12.166 66.8039 12.5912C66.0106 13.0164 65.1085 13.2289 64.0976 13.2289ZM64.0976 11.6983C64.7502 11.6983 65.3324 11.5586 65.8442 11.2792C66.3689 10.9998 66.7783 10.605 67.0727 10.0948C67.367 9.57248 67.5141 8.97113 67.5141 8.29085C67.5141 7.59843 67.367 7.00319 67.0727 6.50513C66.7783 5.99492 66.3689 5.60012 65.8442 5.32072C65.3324 5.04132 64.7502 4.90162 64.0976 4.90162C63.445 4.90162 62.8628 5.04132 62.351 5.32072C61.8392 5.60012 61.4297 5.99492 61.1226 6.50513C60.8155 7.00319 60.6619 7.59843 60.6619 8.29085C60.6619 8.97113 60.8155 9.57248 61.1226 10.0948C61.4297 10.605 61.8392 10.9998 62.351 11.2792C62.8628 11.5586 63.445 11.6983 64.0976 11.6983ZM75.2447 13.2289C74.3746 13.2289 73.6068 13.077 72.9415 12.7734C72.2889 12.4697 71.7771 12.0081 71.406 11.3885C71.0477 10.7569 70.8685 9.96725 70.8685 9.01972V3.46211H72.7111V8.81928C72.7111 9.76681 72.9479 10.4775 73.4213 10.9512C73.9076 11.425 74.5857 11.6619 75.4559 11.6619C76.0957 11.6619 76.6523 11.5404 77.1257 11.2974C77.5991 11.0423 77.9638 10.6779 78.2198 10.2041C78.4757 9.71825 78.6037 9.13515 78.6037 8.45485V3.46211H80.4463V13.1196H78.6996V10.5139L78.9875 11.2063C78.6548 11.8502 78.1558 12.3482 77.4904 12.7005C76.8251 13.0528 76.0765 13.2289 75.2447 13.2289ZM86.8716 13.2289C85.8479 13.2289 85.0545 12.9677 84.4916 12.4454C83.9285 11.9231 83.647 11.176 83.647 10.2041V1.34839H85.4896V10.1312C85.4896 10.6536 85.624 11.0544 85.8927 11.3339C86.1742 11.6133 86.5708 11.753 87.0827 11.753C87.6585 11.753 88.1384 11.6011 88.5223 11.2974L89.0981 12.5547C88.8165 12.7855 88.4775 12.9556 88.0808 13.0649C87.6969 13.1743 87.2939 13.2289 86.8716 13.2289ZM81.9196 4.90162V3.46211H88.4071V4.90162H81.9196ZM95.2797 13.2289C94.192 13.2289 93.2324 13.0164 92.4006 12.5912C91.5817 12.166 90.9419 11.5829 90.4812 10.8419C90.0333 10.1009 89.8094 9.2505 89.8094 8.29085C89.8094 7.33118 90.027 6.48083 90.462 5.73982C90.9099 4.99881 91.5177 4.42178 92.2854 4.00876C93.0659 3.58358 93.9425 3.371 94.915 3.371C95.9003 3.371 96.7706 3.57752 97.525 3.99054C98.2802 4.40356 98.8685 4.98665 99.2908 5.73982C99.7265 6.48083 99.9434 7.3494 99.9434 8.34552C99.9434 8.4184 99.9376 8.50344 99.9242 8.60062C99.9242 8.69781 99.9184 8.78892 99.905 8.87395H91.249V7.61665H98.9453L98.1967 8.05397C98.2102 7.43443 98.0758 6.88171 97.7937 6.3958C97.5125 5.90989 97.1219 5.5333 96.6228 5.26605C96.1372 4.98665 95.5676 4.84696 94.915 4.84696C94.2751 4.84696 93.7058 4.98665 93.2067 5.26605C92.7077 5.5333 92.3174 5.91596 92.0359 6.41402C91.7544 6.89993 91.6136 7.45873 91.6136 8.09041V8.38196C91.6136 9.0258 91.7672 9.60281 92.0743 10.113C92.3942 10.6111 92.8356 10.9998 93.3987 11.2792C93.9617 11.5586 94.6079 11.6983 95.3372 11.6983C95.9387 11.6983 96.4827 11.6011 96.9683 11.4068C97.4674 11.2124 97.9031 10.9209 98.2735 10.5321L99.2908 11.6619C98.8301 12.1721 98.2543 12.5608 97.5633 12.8281C96.8858 13.0953 96.1238 13.2289 95.2797 13.2289Z" fill="white"/>
<path d="M44.7863 13.1196V0.364441H51.2546C52.5086 0.364441 53.5899 0.558805 54.4983 0.947535C55.4196 1.33627 56.1298 1.89506 56.6289 2.62393C57.1279 3.34065 57.3774 4.19099 57.3774 5.17496C57.3774 6.15894 57.1279 7.00928 56.6289 7.726C56.1298 8.43057 55.4196 8.97115 54.4983 9.34773C53.5899 9.72428 52.5086 9.9126 51.2546 9.9126H47.3006L49.316 8.1451V13.1196H44.7863ZM52.8285 13.1196L49.5271 8.47309H54.3256L57.6653 13.1196H52.8285ZM49.316 8.61886L47.3006 6.66914H50.9667C51.5937 6.66914 52.0544 6.53551 52.3486 6.26827C52.6557 6.00102 52.8093 5.63658 52.8093 5.17496C52.8093 4.71335 52.6557 4.34891 52.3486 4.08166C52.0544 3.81442 51.5937 3.68079 50.9667 3.68079H47.3006L49.316 1.73107V8.61886Z" fill="#26292B"/>
</g>
<defs>
<clipPath id="clip0_221_329">
<rect width="100" height="13.484" fill="white"/>
</clipPath>
</defs>
</svg>
