<svg width="140" height="20" viewBox="0 0 140 20" fill="none" xmlns="http://www.w3.org/2000/svg">
<g clip-path="url(#clip0_780_2286)">
<path d="M5.61606 19.3474V5.45489H0.107422V0.537425H17.4663V5.45489H11.9577V19.3474H5.61606ZM28.7128 19.7773C27.1902 19.7773 25.775 19.5355 24.4672 19.0518C23.1773 18.5681 22.0577 17.8873 21.1082 17.0096C20.1589 16.1138 19.4153 15.0659 18.8779 13.8656C18.3585 12.6654 18.0986 11.3576 18.0986 9.94242C18.0986 8.50927 18.3585 7.20153 18.8779 6.01919C19.4153 4.81894 20.1589 3.7799 21.1082 2.90211C22.0577 2.00639 23.1773 1.3167 24.4672 0.833011C25.775 0.349326 27.1902 0.107483 28.7128 0.107483C30.2535 0.107483 31.6687 0.349326 32.9585 0.833011C34.2483 1.3167 35.3681 2.00639 36.3174 2.90211C37.2669 3.7799 38.0015 4.81894 38.5209 6.01919C39.0583 7.20153 39.327 8.50927 39.327 9.94242C39.327 11.3576 39.0583 12.6654 38.5209 13.8656C38.0015 15.0659 37.2669 16.1138 36.3174 17.0096C35.3681 17.8873 34.2483 18.5681 32.9585 19.0518C31.6687 19.5355 30.2535 19.7773 28.7128 19.7773ZM28.7128 14.6449C29.304 14.6449 29.8504 14.5374 30.352 14.3225C30.8715 14.1075 31.3194 13.8029 31.6956 13.4088C32.0898 12.9968 32.3942 12.5042 32.6092 11.9309C32.8242 11.3397 32.9316 10.6769 32.9316 9.94242C32.9316 9.20793 32.8242 8.55407 32.6092 7.9808C32.3942 7.38963 32.0898 6.89699 31.6956 6.50288C31.3194 6.09084 30.8715 5.77735 30.352 5.56238C29.8504 5.34741 29.304 5.23992 28.7128 5.23992C28.1217 5.23992 27.5664 5.34741 27.0468 5.56238C26.5453 5.77735 26.0974 6.09084 25.7032 6.50288C25.327 6.89699 25.0315 7.38963 24.8165 7.9808C24.6015 8.55407 24.494 9.20793 24.494 9.94242C24.494 10.6769 24.6015 11.3397 24.8165 11.9309C25.0315 12.5042 25.327 12.9968 25.7032 13.4088C26.0974 13.8029 26.5453 14.1075 27.0468 14.3225C27.5664 14.5374 28.1217 14.6449 28.7128 14.6449ZM50.6308 19.7773C47.7465 19.7773 45.4983 18.9981 43.886 17.4395C42.2738 15.881 41.4676 13.6954 41.4676 10.8829V0.537425H47.8093V10.6948C47.8093 12.128 48.069 13.1491 48.5885 13.7582C49.108 14.3493 49.8066 14.6449 50.6845 14.6449C51.5801 14.6449 52.2788 14.3493 52.7805 13.7582C53.2999 13.1491 53.5597 12.128 53.5597 10.6948V0.537425H59.7939V10.8829C59.7939 13.6954 58.9878 15.881 57.3755 17.4395C55.7632 18.9981 53.5149 19.7773 50.6308 19.7773ZM89.7366 19.5086C88.3034 19.5086 87.0316 19.1952 85.9208 18.5681C84.8101 17.9411 83.9324 17.0812 83.2874 15.9885C82.6425 14.8778 82.3201 13.6238 82.3201 12.2265C82.3201 10.8113 82.6425 9.55725 83.2874 8.46449C83.9324 7.37172 84.8101 6.52079 85.9208 5.91171C87.0316 5.2847 88.3034 4.97121 89.7366 4.97121C91.1518 4.97121 92.4147 5.2847 93.5254 5.91171C94.654 6.52079 95.5318 7.37172 96.1588 8.46449C96.8038 9.53935 97.1262 10.7933 97.1262 12.2265C97.1262 13.6417 96.8038 14.8958 96.1588 15.9885C95.5318 17.0812 94.654 17.9411 93.5254 18.5681C92.4147 19.1952 91.1518 19.5086 89.7366 19.5086ZM89.7366 17.2514C90.6502 17.2514 91.4653 17.0455 92.1819 16.6334C92.9164 16.2213 93.4896 15.6392 93.9016 14.8868C94.3137 14.1165 94.5197 13.2297 94.5197 12.2265C94.5197 11.2054 94.3137 10.3276 93.9016 9.59309C93.4896 8.84069 92.9164 8.25848 92.1819 7.84645C91.4653 7.43441 90.6502 7.2284 89.7366 7.2284C88.8229 7.2284 88.0078 7.43441 87.2913 7.84645C86.5748 8.25848 86.0014 8.84069 85.5715 9.59309C85.1416 10.3276 84.9266 11.2054 84.9266 12.2265C84.9266 13.2297 85.1416 14.1165 85.5715 14.8868C86.0014 15.6392 86.5748 16.2213 87.2913 16.6334C88.0078 17.0455 88.8229 17.2514 89.7366 17.2514ZM105.343 19.5086C104.124 19.5086 103.049 19.2847 102.118 18.8368C101.204 18.389 100.488 17.7083 99.9683 16.7946C99.4667 15.8631 99.2159 14.6987 99.2159 13.3013V5.10556H101.796V13.0058C101.796 14.4031 102.127 15.4511 102.79 16.1497C103.471 16.8484 104.42 17.1977 105.638 17.1977C106.534 17.1977 107.313 17.0186 107.976 16.6603C108.639 16.2841 109.149 15.7466 109.508 15.048C109.866 14.3315 110.045 13.4716 110.045 12.4683V5.10556H112.625V19.3474H110.179V15.5048L110.582 16.5259C110.117 17.4754 109.418 18.2098 108.487 18.7294C107.555 19.2489 106.507 19.5086 105.343 19.5086ZM121.62 19.5086C120.187 19.5086 119.076 19.1234 118.288 18.3532C117.5 17.5829 117.106 16.4812 117.106 15.048V1.98848H119.685V14.9405C119.685 15.7108 119.874 16.3019 120.25 16.714C120.644 17.1261 121.199 17.3321 121.916 17.3321C122.722 17.3321 123.394 17.1081 123.931 16.6603L124.737 18.5144C124.343 18.8547 123.868 19.1056 123.313 19.2668C122.776 19.428 122.211 19.5086 121.62 19.5086ZM114.687 7.2284V5.10556H123.77V7.2284H114.687ZM133.391 19.5086C131.869 19.5086 130.525 19.1952 129.361 18.5681C128.214 17.9411 127.319 17.0812 126.674 15.9885C126.047 14.8958 125.733 13.6417 125.733 12.2265C125.733 10.8113 126.038 9.55725 126.647 8.46449C127.274 7.37172 128.125 6.52079 129.2 5.91171C130.292 5.2847 131.519 4.97121 132.881 4.97121C134.26 4.97121 135.479 5.27575 136.535 5.88483C137.592 6.49392 138.416 7.3538 139.007 8.46449C139.617 9.55725 139.921 10.8381 139.921 12.3071C139.921 12.4146 139.913 12.54 139.894 12.6833C139.894 12.8266 139.886 12.961 139.867 13.0864H127.748V11.2322H138.523L137.475 11.8772C137.494 10.9635 137.306 10.1484 136.911 9.43186C136.517 8.71529 135.971 8.15994 135.272 7.76583C134.592 7.3538 133.795 7.14779 132.881 7.14779C131.985 7.14779 131.188 7.3538 130.489 7.76583C129.791 8.15994 129.244 8.72424 128.85 9.45873C128.456 10.1753 128.259 10.9994 128.259 11.9309V12.3608C128.259 13.3103 128.474 14.1612 128.904 14.9136C129.352 15.6482 129.97 16.2213 130.758 16.6334C131.546 17.0455 132.451 17.2514 133.472 17.2514C134.314 17.2514 135.076 17.1081 135.756 16.8215C136.454 16.5349 137.064 16.105 137.583 15.5317L139.007 17.1977C138.362 17.9501 137.556 18.5234 136.589 18.9175C135.64 19.3115 134.573 19.5086 133.391 19.5086Z" fill="black"/>
<path d="M62.7007 19.3474V0.537415H71.7563C73.512 0.537415 75.0258 0.824042 76.2976 1.3973C77.5874 1.97056 78.5817 2.79461 79.2803 3.86947C79.979 4.92642 80.3283 6.18041 80.3283 7.63147C80.3283 9.08252 79.979 10.3365 79.2803 11.3935C78.5817 12.4325 77.5874 13.2297 76.2976 13.785C75.0258 14.3403 73.512 14.618 71.7563 14.618H66.2208L69.0423 12.0115V19.3474H62.7007ZM73.9598 19.3474L69.3379 12.4952H76.0558L80.7314 19.3474H73.9598ZM69.0423 12.7102L66.2208 9.83492H71.3533C72.2312 9.83492 72.8761 9.63786 73.288 9.24375C73.718 8.84964 73.9329 8.31221 73.9329 7.63147C73.9329 6.95072 73.718 6.41329 73.288 6.01918C72.8761 5.62507 72.2312 5.42801 71.3533 5.42801H66.2208L69.0423 2.55277V12.7102Z" fill="#3AD0FF"/>
</g>
<defs>
<clipPath id="clip0_780_2286">
<rect width="140" height="19.8848" fill="white"/>
</clipPath>
</defs>
</svg>
